<svg width="100" height="100" viewBox="0 0 100 100" fill="none" xmlns="http://www.w3.org/2000/svg">
<g clip-path="url(#clip0_1_2)">
<path fill-rule="evenodd" clip-rule="evenodd" d="M20.2 11.5458C30.0672 10.0975 40.0271 9.37196 50 9.375C60.125 9.375 70.0708 10.1167 79.8 11.5417C88.0417 12.7583 93.75 19.975 93.75 28.0833V53.1667C93.75 61.275 88.0417 68.4917 79.8 69.7083C74.9928 70.4128 70.1619 70.9451 65.3167 71.3042C65.0701 71.3204 64.8305 71.3926 64.6161 71.5153C64.4016 71.6381 64.218 71.8081 64.0792 72.0125L52.6 89.2333C52.3146 89.6613 51.928 90.0122 51.4744 90.255C51.0209 90.4977 50.5144 90.6247 50 90.6247C49.4856 90.6247 48.9791 90.4977 48.5256 90.255C48.072 90.0122 47.6854 89.6613 47.4 89.2333L35.9208 72.0125C35.782 71.8081 35.5984 71.6381 35.3839 71.5153C35.1695 71.3926 34.9299 71.3204 34.6833 71.3042C29.838 70.9437 25.0072 70.41 20.2 69.7042C11.9583 68.4958 6.25 61.2708 6.25 53.1625V28.0875C6.25 19.9792 11.9583 12.7542 20.2 11.5458ZM28.125 34.375C28.125 33.5462 28.4542 32.7513 29.0403 32.1653C29.6263 31.5792 30.4212 31.25 31.25 31.25H68.75C69.5788 31.25 70.3737 31.5792 70.9597 32.1653C71.5458 32.7513 71.875 33.5462 71.875 34.375C71.875 35.2038 71.5458 35.9987 70.9597 36.5847C70.3737 37.1708 69.5788 37.5 68.75 37.5H31.25C30.4212 37.5 29.6263 37.1708 29.0403 36.5847C28.4542 35.9987 28.125 35.2038 28.125 34.375ZM31.25 43.75C30.4212 43.75 29.6263 44.0792 29.0403 44.6653C28.4542 45.2513 28.125 46.0462 28.125 46.875C28.125 47.7038 28.4542 48.4987 29.0403 49.0847C29.6263 49.6708 30.4212 50 31.25 50H50C50.8288 50 51.6237 49.6708 52.2097 49.0847C52.7958 48.4987 53.125 47.7038 53.125 46.875C53.125 46.0462 52.7958 45.2513 52.2097 44.6653C51.6237 44.0792 50.8288 43.75 50 43.75H31.25Z" fill="#14B8A6"/>
</g>
<defs>
<clipPath id="clip0_1_2">
<rect width="100" height="100" fill="white"/>
</clipPath>
</defs>
</svg>
